<?xml version="1.0" encoding="utf-8"?>
<!-- Generator: Adobe Illustrator 27.5.0, SVG Export Plug-In . SVG Version: 6.00 Build 0)  -->
<svg version="1.1" xmlns="http://www.w3.org/2000/svg" xmlns:xlink="http://www.w3.org/1999/xlink" x="0px" y="0px"
	 viewBox="0 0 595.28 841.89" style="enable-background:new 0 0 595.28 841.89;" xml:space="preserve">
<style type="text/css">
	.st0{fill-rule:evenodd;clip-rule:evenodd;fill:#FFFFFF;}
</style>
<g id="New_Layer">
	<g>
		<path class="st0" d="M303.44,212.64c-3.96,0.66-9.36,2.44-12.46,4.02c-2.97,1.52-4.09,3.76-6.2,12.86
			c-2.84,11.94-11.94,28.49-18.8,33.96c-1.25,0.99-3.69,2.18-5.34,2.64c-2.64,0.73-3.3,0.66-5.61-0.46
			c-1.98-0.99-2.77-1.91-3.5-4.02c-0.92-2.57-0.92-2.97,0.59-6.27c0.92-1.91,2.97-5.01,4.62-6.79c5.08-5.54,15.23-20.11,17.01-24.27
			c2.7-6.33-1.85-8.9-14.57-8.11c-12.73,0.79-22.16,4.22-28.09,10.16c-3.23,3.23-7.39,9.36-12.86,18.86
			c-4.22,7.39-12.13,15.3-19.26,19.26c-13.45,7.45-19.45,9.43-23.02,7.52c-1.65-0.86-3.63-4.29-3.63-6.2c0-2.31,4.81-6.4,11.41-9.69
			c8.77-4.42,11.01-6,17.28-12.33c5.94-6.07,10.22-12.07,10.22-14.31c0-3.56-5.01-4.48-13.98-2.64
			c-10.16,2.11-28.89,9.3-44.45,17.08c-10.68,5.34-14.11,8.05-16.62,13.19c-1.78,3.5-3.36,11.47-3.43,16.88
			c0,1.98-0.73,8.51-1.65,14.44l-1.58,10.82l1.52,3.69c0.86,2.04,2.7,4.88,4.15,6.33c1.45,1.45,2.77,2.9,2.9,3.3
			c0.13,0.33,1.78,1.98,3.56,3.56c5.8,5.21,6.79,7.65,4.22,10.88c-2.7,3.5-7.32,1.78-11.15-4.15c-4.09-6.4-10.68-8.31-17.48-5.08
			c-6.86,3.23-8.71,6.92-7.85,16.09c0.92,10.49,0.66,15.89-0.86,19.39c-0.79,1.65-2.04,3.36-2.77,3.82
			c-3.69,1.91-11.08-5.61-13.52-13.85c-1.32-4.42-1.32-8.51-0.07-13.52c1.45-5.67,3.69-9.96,10.95-21.17
			c9.36-14.51,12.33-20.64,13.78-28.56c0.73-4.15,0.13-7.06-1.65-7.72c-1.71-0.73-8.44,3.1-12.79,7.25
			c-4.81,4.62-11.47,13.59-18.93,25.46c-2.84,4.55-7.06,10.68-9.43,13.72c-10.95,13.78-13.06,16.68-14.11,19.72
			c-3.63,10.16,1.38,16.95,19.32,25.92c12.53,6.27,17.15,10.29,17.15,15.04c0,3.17-3.03,6.07-6.27,6.07c-3.03,0-4.35-0.73-9.23-4.95
			c-8.97-7.72-15.76-11.21-20.97-10.68c-2.9,0.26-3.69,0.66-5.54,2.84c-2.9,3.36-4.15,7.72-4.62,16.16
			c-0.86,16.62,2.51,33.17,10.42,50.98c5.61,12.73,9.23,16.49,14.11,14.9c2.37-0.79,4.62-3.1,5.28-5.47
			c0.92-3.1,2.44-5.74,4.09-6.99c3.1-2.51,10.29-1.38,12.07,1.85c0.99,1.91,0.79,7.12-0.4,12.53c-0.66,2.9-0.92,5.61-0.59,7.12
			c1.19,6.46,14.77,13.39,26.25,13.39c10.75,0,12.66-5.74,9.36-28.62c-1.06-7.52-1.58-13.59-1.38-15.1
			c1.58-9.69,11.67-11.15,14.18-2.04c0.99,3.56,0.92,6.59-0.33,13.92c-1.52,8.64-0.99,20.18,0.99,25.46
			c2.9,7.39,6.99,11.15,14.57,13.39c3.1,0.99,4.29,0.99,8.84,0.33c2.9-0.46,7.19-1.58,9.56-2.44c2.37-0.92,6.2-2.18,8.44-2.9
			l4.09-1.19l5.34,2.7c4.15,2.04,5.61,3.17,6.4,4.75c0.99,2.04,0.92,2.37-0.79,6.66c-1.58,3.96-1.78,5.14-1.52,9.83
			c0.33,5.74,1.25,8.11,4.88,12.66c10.35,12.73,43.92,20.71,68.32,16.16c17.81-3.36,39.31-12.2,66.94-27.7
			c26.71-14.97,33.3-18.6,39.11-21.7c3.43-1.78,8.77-4.68,11.87-6.33c4.48-2.37,7.06-3.23,12.93-4.35
			c8.64-1.65,14.57-1.78,17.87-0.4c2.11,0.92,2.31,1.19,1.98,2.97c-0.73,3.36-2.24,4.95-8.38,8.57
			c-9.89,5.87-13.98,11.08-12.93,16.68c1.65,8.9,18.93,18.86,40.49,23.28c6.86,1.45,10.22,1.71,18.6,1.71
			c9.63,0.07,10.95-0.13,22.42-2.7c6.73-1.52,13.59-3.17,15.23-3.63c3.76-1.12,8.51-3.5,8.51-4.29c0-0.66-0.26-0.79-8.9-3.83
			c-12.07-4.22-16.16-7.39-16.16-12.6c0-2.18,0.4-2.97,2.31-4.62c3.63-3.23,10.02-3.63,13.26-0.99
			c10.02,8.24,16.03,12.07,19.06,12.07c4.02,0,13.26-14.71,15.23-24.33c1.52-7.32,0.33-11.94-4.29-16.75
			c-4.02-4.29-5.74-4.75-15.89-4.62c-4.88,0.07-11.08,0.46-13.65,0.92c-4.22,0.66-5.14,0.66-7.78-0.33
			c-3.3-1.32-4.29-2.57-4.29-5.67c0-1.52,0.66-2.77,2.24-4.35l2.24-2.24l8.84,0.07c30.47,0.2,45.64-7.65,46.56-24.2
			c0.66-11.61-3.5-20.31-12.4-25.98c-6.92-4.42-18.4-7.91-26.05-7.91c-2.04,0-4.55-0.46-5.54-0.92c-4.22-2.18-5.28-7.32-2.31-10.88
			c1.45-1.78,2.11-2.04,5.01-2.04c1.85,0,7.19,1.06,12,2.37c10.09,2.77,18.47,3.56,20.51,2.04c2.31-1.78,1.32-9.69-4.02-31.13
			c-4.55-18.27-10.55-29.74-18.2-34.69c-5.14-3.3-7.52-3.76-10.95-1.98c-4.09,2.11-7.78,7.12-13.98,19.19
			c-6.53,12.86-9.83,15.37-15.17,11.67c-4.48-3.03-5.61-7.91-3.36-14.38c2.24-6.59,4.88-11.15,13.39-22.88
			c5.21-7.25,6.33-10.82,5.21-16.75c-1.78-9.83-8.31-16.55-25.13-25.85c-3.43-1.91-14.44-8.05-24.4-13.65l-18.14-10.09l-8.31,0.07
			c-13.12,0.13-20.31,1.98-22.29,5.61c-1.06,2.04-0.4,4.75,3.63,14.57c1.58,3.89,2.9,7.72,2.9,8.44c0,1.91-2.9,4.55-5.08,4.55
			c-2.9-0.07-7.12-2.31-9.1-4.88c-1.78-2.37-4.09-9.1-6.07-17.54c-1.52-6.73,0.33-13.06,5.08-17.01c1.71-1.52,8.84-4.75,10.35-4.75
			c1.32,0,2.97-1.25,1.71-1.38c-8.18-0.53-10.88-1.25-18.07-4.68c-12.07-5.8-11.87-5.8-31.59-4.88
			c-10.68,0.53-11.01,0.53-16.82-1.25c-4.68-1.38-7.58-1.85-13.85-1.98C310.1,212.18,305.15,212.31,303.44,212.64z M348.42,268.37
			c2.57,1.32,3.63,4.88,2.31,7.98c-1.71,4.15-6.92,4.95-10.35,1.58c-1.78-1.85-1.98-2.37-1.65-4.81
			C339.38,268.17,343.87,265.99,348.42,268.37z M255.1,279.18c7.12,3.17,10.95,9.03,11.41,17.61c0.26,4.75,0.07,5.87-1.38,9.03
			c-1.52,3.36-6.46,9.03-7.78,9.03c-1.52,0-0.33,1.12,2.37,2.24c3.36,1.32,7.45,5.67,9.56,10.02c2.64,5.34,5.21,21.96,10.22,64.89
			c1.25,11.08,3.43,29.21,4.75,40.36c2.04,16.82,2.31,20.38,1.58,21.24c-1.25,1.45-6.13,1.38-7.52-0.13
			c-0.79-0.86-2.44-12.79-6.99-49.2c-8.77-70.17-9.03-71.49-14.71-77.88c-3.3-3.82-5.28-4.48-11.41-4.15
			c-6.07,0.4-9.23,1.71-9.83,4.02c-0.2,0.92,2.37,17.41,5.8,36.8c3.43,19.39,8.38,47.42,10.95,62.39
			c2.64,14.9,4.62,27.63,4.42,28.16c-0.33,0.79-1.32,1.06-3.69,1.06c-2.77,0-3.5-0.26-4.29-1.52c-0.53-0.79-3.36-14.24-6.33-29.81
			c-2.97-15.63-9.96-52.36-15.56-81.64c-5.61-29.35-10.16-54.08-10.16-54.93c0-3.5,4.81-5.67,18.8-8.51
			C242.04,276.87,250.95,277.34,255.1,279.18z M190.47,286.11c1.19,0.86,1.19,2.24,0.46,50.25c-0.46,27.17-0.99,54.28-1.25,60.28
			l-0.4,10.88l2.9-3.03c4.75-4.81,8.24-6.2,16.09-6.2c5.87,0,6.92,0.2,9.89,1.78c4.62,2.44,8.44,6.66,10.95,12
			c1.91,4.09,2.18,5.41,2.44,11.8c0.2,4.48,0,8.64-0.53,10.95c-1.91,8.51-7.39,15.83-14.38,19.06c-3.23,1.52-4.62,1.78-9.69,1.78
			c-7.52,0-11.54-1.65-15.83-6.4l-2.97-3.3v3.3c0,4.09-1.12,5.41-4.62,5.41c-4.68,0-4.75-0.33-4.35-15.76
			c0.2-7.45,0.73-38.84,1.06-69.64c0.86-76.7,1.06-82.24,2.44-83.29C184.14,284.92,188.89,284.99,190.47,286.11z M312.28,289.34
			c3.63,1.52,8.11,6,9.83,9.89c1.45,3.3,1.58,4.35,1.91,22.88c0.46,22.42,0.46,22.42-4.29,22.42c-3.36,0-4.95-1.58-4.95-4.88v-1.98
			l-2.44,2.37c-4.55,4.35-7.58,5.47-14.77,5.47c-5.87,0-6.53-0.13-9.56-1.98c-1.98-1.25-3.96-3.23-5.21-5.21
			c-1.78-2.9-1.98-3.82-1.98-8.57c0-4.15,0.33-5.94,1.45-7.98c3.96-7.45,11.94-11.15,26.84-12.53l4.48-0.46l-0.26-3.3
			c-0.33-3.43-1.78-5.87-4.62-7.98c-2.44-1.85-9.63-2.18-14.38-0.79c-6.73,2.04-7.78,2.04-8.57,0c-1.19-3.1-0.79-4.15,1.98-5.61
			C294.14,287.82,306.61,286.96,312.28,289.34z M400.32,288.81c4.35,1.32,8.9,5.34,11.21,10.09l1.85,3.76l0.33,57.24l0.33,57.31
			l1.45-1.98c3.76-5.08,17.67-21.04,19.19-22.03c3.23-2.18,10.02-1.19,10.02,1.45c0,0.26-4.15,4.95-9.23,10.29
			c-5.08,5.41-9.23,10.09-9.23,10.42c0,0.26,4.75,6.92,10.62,14.71c5.8,7.78,10.75,14.64,10.95,15.1c0.73,1.98-1.12,2.9-5.74,2.9
			h-4.48l-6.46-9.1c-3.56-4.95-7.85-10.88-9.56-13.12l-3.1-4.15l-2.37,2.64l-2.37,2.64v9.23c0,8.38-0.13,9.36-1.32,10.55
			c-1.78,1.78-6.13,1.78-7.98-0.07c-1.32-1.32-1.32-1.52-1.25-70.37c0.13-72.54,0.13-71.22-2.77-75.51
			c-3.76-5.34-13.85-5.54-18.8-0.33c-4.42,4.68-4.48,5.01-4.68,24.6c-0.13,11.08-0.46,18.07-0.92,18.6
			c-0.4,0.53-2.18,0.86-4.22,0.86c-5.74,0-5.54,1.12-5.54-28.36c0-18.93,0.2-25.65,0.79-26.25c0.46-0.46,2.18-0.79,3.82-0.79
			c3.63,0,4.62,0.79,4.68,3.89c0,1.32,0.26,2.9,0.53,3.56c0.4,1.12,0.53,1.06,1.38-0.53c1.19-2.31,6.13-5.87,9.89-7.12
			C391.15,287.62,396.1,287.56,400.32,288.81z M349.21,290.26c1.12,0.99,1.19,2.7,1.19,26.45c0,29.28,0.26,27.83-5.67,27.83
			c-2.77,0-3.63-0.26-4.22-1.25c-0.4-0.86-0.66-10.42-0.66-26.71c0-22.16,0.13-25.52,1.06-26.38
			C342.28,288.74,347.62,288.81,349.21,290.26z M323.03,393.27c7.25,3.36,11.47,9.89,12.86,19.78c0.59,4.42,0.4,6.92-0.86,8.44
			c-0.46,0.66-5.14,0.86-19.39,0.86h-18.8l0.46,2.44c1.25,7.19,4.09,11.54,9.17,14.18c3.69,1.91,12.86,2.37,19.06,0.92
			c5.01-1.19,5.54-1.06,6.46,1.45c1.65,4.35-1.25,6.2-11.54,7.45c-14.05,1.65-24.93-3.1-30.07-13.26
			c-5.8-11.47-3.76-27.43,4.62-36.54c5.21-5.67,9.76-7.52,18.47-7.58C318.34,391.36,319.6,391.62,323.03,393.27z M374.93,392.41
			c5.67,1.91,9.96,6.79,11.61,13.12c0.4,1.45,0.79,11.21,0.92,21.63c0.2,18.2,0.13,19.06-1.12,19.98c-1.78,1.32-5.21,1.19-6.46-0.26
			c-0.59-0.66-1.32-2.18-1.52-3.3l-0.46-2.11l-2.64,2.37c-10.22,9.3-26.91,6.13-30.4-5.74c-1.32-4.35-1.32-6.07,0-10.42
			c2.57-8.71,11.87-13.98,26.51-14.97l6.13-0.46l-0.4-2.7c-0.59-3.76-2.31-6.99-4.48-8.57c-2.84-2.04-11.34-2.31-16.55-0.46
			c-4.15,1.45-5.67,1.19-6.99-1.32c-0.86-1.52,0.4-4.02,2.57-5.21C356.53,391.43,369.45,390.5,374.93,392.41z"/>
		<path class="st0" d="M234.13,286.77c-4.02,1.12-5.74,2.7-5.74,5.34c0,4.22,3.96,21.76,5.08,22.55c1.45,1.12,1.98,1.06,7.65-0.2
			c8.24-1.85,12.53-4.75,14.64-9.63c1.85-4.55,0.73-11.41-2.51-14.97C249.76,286.04,241.65,284.72,234.13,286.77z"/>
		<path class="st0" d="M199.04,407.65c-2.9,1.52-6.2,4.75-7.78,7.78c-1.32,2.37-1.45,3.69-1.45,11.94c0,9.17,0,9.3,1.98,12.46
			c2.97,4.88,6.66,7.12,11.94,7.45c7.85,0.53,13.12-3.03,16.03-10.75c1.78-4.75,1.98-13.06,0.46-18.2
			c-1.19-4.22-4.75-8.64-8.38-10.49C208.67,406.2,201.95,406.13,199.04,407.65z"/>
		<path class="st0" d="M301,317.89c-7.06,1.91-10.29,5.87-9.83,11.94c0.26,2.9,0.73,3.96,2.44,5.67c1.98,1.98,2.37,2.11,6.92,2.11
			c4.35,0,5.21-0.2,7.72-1.98c3.23-2.31,5.28-5.8,5.74-9.89C314.85,317.63,310.89,315.26,301,317.89z"/>
		<path class="st0" d="M308.85,399.21c-5.08,1.65-8.64,5.28-10.42,10.55c-1.71,4.95-2.31,4.68,12.4,4.68h13.19l0.99-1.58
			c0.86-1.32,0.92-2.11,0.4-4.15c-0.99-3.63-3.56-7.12-6.27-8.38C316.3,399.01,311.16,398.42,308.85,399.21z"/>
		<path class="st0" d="M363.06,421.63c-4.02,1.38-6.53,3.43-7.78,6.46c-2.84,6.66,1.52,13.39,8.64,13.39c3.96,0,9.23-2.9,11.41-6.13
			c1.45-2.18,1.78-3.43,1.78-6.92c0-3.89-0.13-4.35-2.18-6.13C372.36,419.98,368.46,419.78,363.06,421.63z"/>
		<path class="st0" d="M370.84,503.27c-4.88,0.79-17.01,4.42-20.38,6.07c-5.34,2.57-7.78,4.42-10.02,7.52
			c-2.77,3.83-3.56,7.19-2.24,9.89c3.03,6.13,12.99,7.78,26.84,4.42c6.59-1.65,9.43-3.17,13.12-7.06c4.81-5.01,7.12-8.77,7.58-12.2
			c0.4-2.84,0.26-3.3-1.52-5.08c-1.12-1.06-3.5-2.37-5.47-2.97C375.26,502.81,374,502.75,370.84,503.27z"/>
		<path class="st0" d="M398.54,525.04c-1.98,0.53-4.35,1.65-5.21,2.51l-1.58,1.52l1.38,2.24c0.79,1.25,4.02,4.35,7.19,6.92
			c12,9.56,16.82,15.7,23.54,30.07c2.77,5.94,4.09,9.17,9.3,22.55c4.42,11.34,8.77,17.94,16.95,25.79
			c9.3,8.9,16.68,12.93,23.68,12.99c4.95,0,7.85-1.65,9.1-5.28c0.86-2.37,0.79-3.17-0.2-7.39c-0.66-2.64-3.76-10.62-6.92-17.74
			c-3.23-7.12-6.59-15.5-7.52-18.6c-0.99-3.1-2.97-9.5-4.35-14.18c-4.75-15.5-9.1-26.91-10.88-28.42
			c-2.7-2.37-25.52-9.1-42.34-12.46c-4.42-0.92-8.11-1.65-8.24-1.58C402.3,523.98,400.52,524.44,398.54,525.04z"/>
	</g>
</g>
<g id="MasterLayer_1">
</g>
</svg>
